<svg xmlns="http://www.w3.org/2000/svg" width="100" height="100" viewBox="0 0 100 100"><style>.main-teal{fill:#0f5e55;}.light-teal{fill:#9fc1c9;}</style><path class="main-teal" d="M15,50 C15,42.5 20.5,37 28,37 C35.5,37 41,42.5 41,50 L41,86 C41,93.5 35.5,99 28,99 C20.5,99 15,93.5 15,86 L15,50 Z"/><path class="main-teal" d="M34,50 C34,42.5 39.5,37 47,37 C54.5,37 60,42.5 60,50 L60,99 C60,86.5 54.5,75 47,75 C39.5,75 34,86.5 34,99 L34,50 Z"/><path class="light-teal" d="M59,50 C59,42.5 64.5,37 72,37 C79.5,37 85,42.5 85,50 L85,86 C85,93.5 79.5,99 72,99 C64.5,99 59,93.5 59,86 L59,50 Z"/><path class="main-teal" d="M78,50 C78,42.5 83.5,37 91,37 C98.5,37 104,42.5 104,50 L104,65 C104,72.5 98.5,78 91,78 C83.5,78 78,72.5 78,65 L78,50 Z"/><path class="main-teal" d="M15,15 C15,7.5 20.5,2 28,2 C35.5,2 41,7.5 41,15 L41,30 C41,37.5 35.5,43 28,43 C20.5,43 15,37.5 15,30 L15,15 Z"/><path class="main-teal" d="M41,15 C41,22.5 46.5,28 54,28 C61.5,28 67,22.5 67,15 L67,1 C67,8.5 61.5,20 54,20 C46.5,20 41,8.5 41,1 L41,15 Z"/><path class="light-teal" d="M59,15 C59,22.5 64.5,28 72,28 C79.5,28 85,22.5 85,15 L85,50 C85,42.5 79.5,31 72,31 C64.5,31 59,42.5 59,50 L59,15 Z"/><path class="main-teal" d="M78,15 C78,7.5 83.5,2 91,2 C98.5,2 104,7.5 104,15 L104,30 C104,37.5 98.5,43 91,43 C83.5,43 78,37.5 78,30 L78,15 Z"/></svg>
